<?xml version="1.0" encoding="UTF-8" standalone="no"?>
<svg width="662px" height="313px" viewBox="0 0 662 313" version="1.1" xmlns="http://www.w3.org/2000/svg" xmlns:xlink="http://www.w3.org/1999/xlink">
    <!-- Generator: Sketch 3.8.3 (29802) - http://www.bohemiancoding.com/sketch -->
    <title>Text face</title>
    <desc>Created with Sketch.</desc>
    <defs></defs>
    <g id="Page-1" stroke="none" stroke-width="1" fill="none" fill-rule="evenodd">
        <g id="Text-face">
            <g id="Eye-right" transform="translate(432.000000, 0.000000)">
                <path d="M20.5925234,165.507386 C20.5925234,179.00205 23.0598075,191.013603 27.9944499,201.542406 C32.9290923,212.071209 39.4497719,221.005728 47.5566844,228.346232 C55.6635969,235.686736 64.8630422,241.284713 75.1552963,245.140331 C85.4475504,248.995949 95.9511317,250.923729 106.666355,250.923729 C117.240589,250.923729 127.673676,248.884731 137.96593,244.806673 C148.258184,240.728615 157.45763,234.945275 165.564542,227.456478 C173.671455,219.967682 180.227381,210.959017 185.232519,200.430214 C190.237656,189.901411 192.740187,178.260585 192.740187,165.507386 C192.740187,153.050774 190.202409,141.558239 185.126777,131.029436 C180.051145,120.500633 173.459971,111.417822 165.353059,103.780733 C157.246146,96.1436431 148.046701,90.1749392 137.754447,85.8744422 C127.462193,81.5739451 117.099599,79.4237288 106.666355,79.4237288 C96.2331112,79.4237288 85.8705177,81.5739451 75.5782636,85.8744422 C65.2860095,90.1749392 56.0865641,96.1436431 47.9796517,103.780733 C39.8727392,111.417822 33.2815657,120.500633 28.2059335,131.029436 C23.1303014,141.558239 20.5925234,153.050774 20.5925234,165.507386 L20.5925234,165.507386 Z" id="Ball" stroke="#000000" stroke-width="28"></path>
                <path d="M91.4247433,162.78677 C91.4247433,161.021615 91.7670218,159.356778 92.451589,157.792208 C93.1361562,156.227639 94.0623215,154.863676 95.2301127,153.700279 C96.3979039,152.536881 97.7670178,151.6142 99.3374955,150.932208 C100.907973,150.250217 102.619366,149.909226 104.471724,149.909226 C106.243545,149.909226 107.934804,150.250217 109.54555,150.932208 C111.156296,151.6142 112.565678,152.536881 113.773738,153.700279 C114.981798,154.863676 115.928097,156.227639 116.612665,157.792208 C117.297232,159.356778 117.63951,161.021615 117.63951,162.78677 C117.63951,164.551925 117.297232,166.216762 116.612665,167.781331 C115.928097,169.3459 114.981798,170.709863 113.773738,171.873261 C112.565678,173.036659 111.156296,173.959339 109.54555,174.641331 C107.934804,175.323323 106.243545,175.664314 104.471724,175.664314 C102.619366,175.664314 100.907973,175.323323 99.3374955,174.641331 C97.7670178,173.959339 96.3979039,173.036659 95.2301127,171.873261 C94.0623215,170.709863 93.1361562,169.3459 92.451589,167.781331 C91.7670218,166.216762 91.4247433,164.551925 91.4247433,162.78677 L91.4247433,162.78677 Z" id="Retina" stroke="#000000" stroke-width="16" fill="#000000"></path>
                <path d="M198.577938,0.756863214 C204.47596,14.8430831 207.424927,25.5606984 207.424927,32.9100305 C207.424927,43.5257324 204.679337,50.5687367 199.188075,54.0392547 C193.696814,57.5097726 182.663611,59.2450056 166.088137,59.2450056 L0.435908408,59.2450056 L0.435908408,89.560849 L166.088137,89.560849 C208.696259,89.560849 230,71.4940119 230,35.3597956 C230,24.6420196 227.457787,13.1078241 222.373286,0.756863214 L198.577938,0.756863214 L198.577938,0.756863214 Z" id="Brow" fill="#000000"></path>
            </g>
            <g id="Eye-left">
                <path d="M20.5925234,165.507386 C20.5925234,179.00205 23.0598075,191.013603 27.9944499,201.542406 C32.9290923,212.071209 39.4497719,221.005728 47.5566844,228.346232 C55.6635969,235.686736 64.8630422,241.284713 75.1552963,245.140331 C85.4475504,248.995949 95.9511317,250.923729 106.666355,250.923729 C117.240589,250.923729 127.673676,248.884731 137.96593,244.806673 C148.258184,240.728615 157.45763,234.945275 165.564542,227.456478 C173.671455,219.967682 180.227381,210.959017 185.232519,200.430214 C190.237656,189.901411 192.740187,178.260585 192.740187,165.507386 C192.740187,153.050774 190.202409,141.558239 185.126777,131.029436 C180.051145,120.500633 173.459971,111.417822 165.353059,103.780733 C157.246146,96.1436431 148.046701,90.1749392 137.754447,85.8744422 C127.462193,81.5739451 117.099599,79.4237288 106.666355,79.4237288 C96.2331112,79.4237288 85.8705177,81.5739451 75.5782636,85.8744422 C65.2860095,90.1749392 56.0865641,96.1436431 47.9796517,103.780733 C39.8727392,111.417822 33.2815657,120.500633 28.2059335,131.029436 C23.1303014,141.558239 20.5925234,153.050774 20.5925234,165.507386 L20.5925234,165.507386 Z" id="Ball" stroke="#000000" stroke-width="28"></path>
                <path d="M91.4247433,162.78677 C91.4247433,161.021615 91.7670218,159.356778 92.451589,157.792208 C93.1361562,156.227639 94.0623215,154.863676 95.2301127,153.700279 C96.3979039,152.536881 97.7670178,151.6142 99.3374955,150.932208 C100.907973,150.250217 102.619366,149.909226 104.471724,149.909226 C106.243545,149.909226 107.934804,150.250217 109.54555,150.932208 C111.156296,151.6142 112.565678,152.536881 113.773738,153.700279 C114.981798,154.863676 115.928097,156.227639 116.612665,157.792208 C117.297232,159.356778 117.63951,161.021615 117.63951,162.78677 C117.63951,164.551925 117.297232,166.216762 116.612665,167.781331 C115.928097,169.3459 114.981798,170.709863 113.773738,171.873261 C112.565678,173.036659 111.156296,173.959339 109.54555,174.641331 C107.934804,175.323323 106.243545,175.664314 104.471724,175.664314 C102.619366,175.664314 100.907973,175.323323 99.3374955,174.641331 C97.7670178,173.959339 96.3979039,173.036659 95.2301127,171.873261 C94.0623215,170.709863 93.1361562,169.3459 92.451589,167.781331 C91.7670218,166.216762 91.4247433,164.551925 91.4247433,162.78677 L91.4247433,162.78677 Z" id="Retina" stroke="#000000" stroke-width="16" fill="#000000"></path>
                <path d="M198.577938,0.756863214 C204.47596,14.8430831 207.424927,25.5606984 207.424927,32.9100305 C207.424927,43.5257324 204.679337,50.5687367 199.188075,54.0392547 C193.696814,57.5097726 182.663611,59.2450056 166.088137,59.2450056 L0.435908408,59.2450056 L0.435908408,89.560849 L166.088137,89.560849 C208.696259,89.560849 230,71.4940119 230,35.3597956 C230,24.6420196 227.457787,13.1078241 222.373286,0.756863214 L198.577938,0.756863214 L198.577938,0.756863214 Z" id="Brow" fill="#000000"></path>
            </g>
            <polygon id="Mouth" fill="#000000" points="429 286 429 313 217 313 217 286"></polygon>
        </g>
    </g>
</svg>