<svg xmlns="http://www.w3.org/2000/svg" version="1.1" viewBox="0 0 612 792">
  <path d="M306.4,90C137.2,90,0,227.2,0,396.4s137.2,306.4,306.4,306.4s306.4-137.2,306.4-306.4S475.7,90,306.4,90z M340.4,573.2  c-9.6,9.6-21.8,13.9-34.8,13.9s-25.2-4.4-34.8-13.9c-9.6-9.6-14.8-20.9-14.8-34c0-12.2,5.2-24.4,14.8-34  c9.6-9.6,21.8-14.8,34.8-14.8c13.9,0,25.2,5.2,34.8,14.8c9.6,9.6,14.8,20.9,14.8,34C355.2,552.3,350,563.6,340.4,573.2z   M352.6,282.4c-2.6,13.1-6.1,26.1-8.7,40c-4.4,14.8-8.7,33.1-13.1,54.8c-4.4,21.8-9.6,49.6-14.8,82.7h-20  c-5.2-33.1-10.4-60.1-14.8-82.7c-4.4-22.6-8.7-40.9-12.2-55.7c-3.5-15.7-7-29.6-9.6-40.9c-2.6-11.3-3.5-20.9-3.5-27.9 c-0.9-13.9,4.4-25.2,14.8-34c10.4-9.6,21.8-13.9,35.7-13.9c13.9,0,26.1,4.4,35.7,13.9c9.6,9.6,14.8,20.9,14.8,34  C356.9,259.8,355.2,269.3,352.6,282.4z"/>
</svg>